<svg xmlns="http://www.w3.org/2000/svg" version="1.1" xmlns:xlink="http://www.w3.org/1999/xlink" xmlns:svgjs="http://svgjs.dev/svgjs" width="560" height="1440" preserveAspectRatio="none" viewBox="0 0 560 1440"><g mask="url(&quot;#SvgjsMask1007&quot;)" fill="none"><rect width="560" height="1440" x="0" y="0" fill="#0e2a47"></rect><path d="M110.83 0C126.1 1.12 126.44 10.29 140 10.29C146.76 10.29 143.98 0.55 151.48 0C213.98 -4.59 215.74 0 280 0C350 0 350 0 420 0C483 0 483.07 -0.93 546 0C553.07 0.1 559.35 -4.45 560 2.06C566.35 65.55 560 71.03 560 140C560 210 560 210 560 280C560 340.82 580.96 401.64 560 401.64C533.39 401.64 494.39 348.35 464.87 280C437.89 217.53 460.48 209.03 446.99 140C438.05 94.23 452.36 58.54 420 50.4C368.86 37.54 344.44 65.67 280 98C255.13 110.47 241.38 119.73 241.38 140C241.38 158.79 261.21 157.53 280 176.13C331.91 227.53 366.99 218.91 382.77 280C398.49 340.85 375.65 358.11 343 420C324.27 455.5 303.54 441.6 280 474.78C253.89 511.6 243.7 518.72 243.7 560C243.7 591.02 250.93 612.91 280 619.39C339.08 632.55 351.69 615.9 420 599.27C473.63 586.21 482.92 591.96 523.87 560C552.92 537.33 550.43 490 560 490C568.5 490 560 525 560 560C560 622.22 561.03 622.3 560 684.44C559.87 692.3 557.67 692.24 557.67 700C557.67 706.38 559.89 706.27 560 712.73C561.06 776.27 560 776.37 560 840C560 910 560 910 560 980C560 1050 560 1050 560 1120C560 1190 560 1190 560 1260C560 1330 560 1330 560 1400C560 1470 595 1505 560 1540C525 1575 490 1540 420 1540C350 1540 350 1540 280 1540C210 1540 210 1540 140 1540C70 1540 35 1575 0 1540C-35 1505 0 1470 0 1400C0 1330 0 1330 0 1260C0 1190 0 1190 0 1120C0 1050 0 1050 0 980C0 912.91 -4.14 910.67 0 845.83C0.33 840.67 4.53 843 8.94 840C74.53 795.44 73.98 794.61 140 750.72C179.28 724.61 219.55 725.91 219.55 700C219.55 673.62 182.86 646.15 140 646.15C73.08 646.15 36.21 722.28 0 700C-33.79 679.21 0 630 0 560C0 490 0 490 0 420C0 366.63 -29.75 328.41 0 313.25C40.25 292.75 82.28 359.44 140 348.68C171.44 342.82 178.32 311.99 178.32 280C178.32 257.2 165.46 243.73 140 239.1C76.3 227.51 39.62 275.6 0 247.56C-30.38 226.05 0 193.78 0 140C0 70 -30.93 39.07 0 0C24.49 -30.93 56.1 -4.02 110.83 0" stroke="rgba(2, 233, 60, 0.58)" stroke-width="2"></path><path d="M0 19.09C38.33 -2.33 80.08 25.74 140 61.76C180.65 86.2 201.15 102.92 201.15 140C201.15 171.93 178.12 187.48 140 199.78C77.55 219.92 47.84 225.31 0 204.88C-22.16 195.42 0 172.44 0 140C0 79.55 -31.67 36.79 0 19.09" stroke="rgba(2, 233, 60, 0.58)" stroke-width="2"></path><path d="M280 54.25C242.79 54.25 208.85 15.11 208.85 0C208.85 -12.02 244.42 0 280 0C326.17 0 372.34 -12.56 372.34 0C372.34 14.57 324.54 54.25 280 54.25" stroke="rgba(2, 233, 60, 0.58)" stroke-width="2"></path><path d="M489.16 140C500.25 90.03 540.03 53.53 560 53.53C575.45 53.53 560 96.76 560 140C560 210 560 210 560 280C560 312.13 571.07 344.26 560 344.26C545.94 344.26 522.69 317.35 509.74 280C487.27 215.22 475.12 203.26 489.16 140" stroke="rgba(2, 233, 60, 0.58)" stroke-width="2"></path><path d="M215.16 280C215.16 243.44 247.49 213.76 280 213.76C312.68 213.76 345.53 243.39 345.53 280C345.53 327.85 312.64 382.67 280 382.67C247.46 382.67 215.16 327.89 215.16 280" stroke="rgba(2, 233, 60, 0.58)" stroke-width="2"></path><path d="M0 357C49.43 355.14 69.83 386.3 140 414.72C147.61 417.8 153.54 412.46 155.56 420C172.99 485.1 184.63 496.47 178.89 560C176.85 582.63 162.3 580.83 140 592.31C72.86 626.86 43.62 662.12 0 652.05C-26.38 645.96 0 606.03 0 560C0 490 0 490 0 420C0 388.5 -20.57 357.78 0 357" stroke="rgba(2, 233, 60, 0.58)" stroke-width="2"></path><path d="M301 700C351.49 662.24 363.09 641.95 420 641.95C462.25 641.95 499.33 664.63 499.33 700C499.33 749 466.75 763.73 420 810.7C397.08 833.73 360 822.24 360 840C360 860.22 395.41 858.33 420 886.67C456.14 928.33 447.04 936.22 481.46 980C517.04 1025.26 533.44 1017.39 560 1064.74C572.71 1087.39 560 1092.37 560 1120C560 1190 560 1190 560 1260C560 1297.5 567.75 1299.22 560 1335C552.59 1369.22 552.28 1372.9 529.67 1400C482.28 1456.8 475.49 1502.81 420 1502.81C362.94 1502.81 316.38 1460.5 304.56 1400C292.65 1339.09 338.41 1329.93 372.54 1260C396.13 1211.66 389.4 1206.3 420 1163.45C439.38 1136.3 472.5 1142.19 472.5 1120C472.5 1097.13 451.83 1076.95 420 1073.33C355.58 1066.01 347.07 1107.91 280 1098.13C207.07 1087.49 202.68 1026.36 140 1032.5C91.02 1037.3 75.59 1067.31 56.67 1120C34.75 1181.06 74.7 1195.28 58.33 1260C46.37 1307.28 16.01 1344 0 1344C-13.15 1344 0 1302 0 1260C0 1190 0 1190 0 1120C0 1050 0 1050 0 980C0 937.22 -19.27 926.79 0 894.44C22.43 856.79 41.92 867.55 83.4 840C111.92 821.06 109.24 816.05 140 801.45C207.54 769.39 219.94 784.51 280 746.67C300.44 733.79 281.49 714.6 301 700" stroke="rgba(2, 233, 60, 0.58)" stroke-width="2"></path><path d="M0 1493.33C54.2 1445.15 77 1404.44 140 1415.56C209.22 1427.78 264.44 1503.55 264.44 1540C264.44 1565.77 202.22 1540 140 1540C70 1540 52.5 1557.5 0 1540C-17.5 1534.17 -15.8 1507.37 0 1493.33" stroke="rgba(2, 233, 60, 0.58)" stroke-width="2"></path><path d="M0 98.64C54.1 88.3 75.18 96.58 140 113.24C155.64 117.26 160.92 127.32 160.92 140C160.92 150.92 153.91 158.53 140 160.45C73.45 169.63 60.42 171.03 0 162.2C-9.58 160.8 0 151.1 0 140C0 119.32 -15.9 101.68 0 98.64" stroke="rgba(2, 233, 60, 0.58)" stroke-width="2"></path><path d="M280 10.5C272.8 10.5 266.23 2.92 266.23 0C266.23 -2.33 273.12 0 280 0C288.93 0 297.87 -2.43 297.87 0C297.87 2.82 288.62 10.5 280 10.5" stroke="rgba(2, 233, 60, 0.58)" stroke-width="2"></path><path d="M531.33 140C531.98 118.85 551.92 105 560 105C566.25 105 560 122.5 560 140C560 210 560 210 560 280C560 283.44 561.19 286.89 560 286.89C558.5 286.89 555.45 284.26 554.62 280C541.12 210.82 529.29 206.35 531.33 140" stroke="rgba(2, 233, 60, 0.58)" stroke-width="2"></path><path d="M252 280C252 264.21 265.96 251.4 280 251.4C294.11 251.4 308.3 264.19 308.3 280C308.3 300.66 294.1 324.33 280 324.33C265.95 324.33 252 300.68 252 280" stroke="rgba(2, 233, 60, 0.58)" stroke-width="2"></path><path d="M0 400.75C16.28 400.75 33.2 400.28 45.29 420C81.99 479.9 110.77 506.37 97.58 560C88.13 598.43 34.56 604.11 0 604.11C-14.23 604.11 0 582.06 0 560C0 490 0 490 0 420C0 410.38 -6.37 400.75 0 400.75" stroke="rgba(2, 233, 60, 0.58)" stroke-width="2"></path><path d="M388.5 700C388.5 689.97 404.94 684.63 420 684.63C431.19 684.63 441 690.64 441 700C441 712.97 431.97 729.3 420 729.3C405.72 729.3 388.5 712.31 388.5 700" stroke="rgba(2, 233, 60, 0.58)" stroke-width="2"></path><path d="M0 943.06C33.39 943.06 91.72 951.32 91.72 980C91.72 1019.05 26.48 1078.52 0 1078.52C-19.38 1078.52 0 1029.26 0 980C0 961.53 -12.47 943.06 0 943.06" stroke="rgba(2, 233, 60, 0.58)" stroke-width="2"></path><path d="M256.67 980C256.67 972.52 267.71 961.33 280 961.33C294.93 961.33 311.11 972.75 311.11 980C311.11 986.46 295.37 988.75 280 988.75C268.15 988.75 256.67 986.23 256.67 980" stroke="rgba(2, 233, 60, 0.58)" stroke-width="2"></path><path d="M0 1206.15C2.45 1206.15 9.72 1234.13 9.72 1260C9.72 1268.06 2.67 1274 0 1274C-2.19 1274 0 1267 0 1260C0 1233.07 -2.41 1206.15 0 1206.15" stroke="rgba(2, 233, 60, 0.58)" stroke-width="2"></path><path d="M365.96 1400C365.96 1348.45 393.54 1285.93 420 1285.93C446.22 1285.93 471.33 1348.1 471.33 1400C471.33 1429.2 445.97 1448.13 420 1448.13C393.29 1448.13 365.96 1429.55 365.96 1400" stroke="rgba(2, 233, 60, 0.58)" stroke-width="2"></path><path d="M95.45 1540C95.45 1532.66 119.34 1512.78 140 1512.78C155.23 1512.78 167.22 1532.03 167.22 1540C167.22 1545.64 153.61 1540 140 1540C117.73 1540 95.45 1546.27 95.45 1540" stroke="rgba(2, 233, 60, 0.58)" stroke-width="2"></path></g><defs><mask id="SvgjsMask1007"><rect width="560" height="1440" fill="#ffffff"></rect></mask></defs></svg>