<svg xmlns="http://www.w3.org/2000/svg" version="1.1" xmlns:xlink="http://www.w3.org/1999/xlink" xmlns:svgjs="http://svgjs.dev/svgjs" width="560" height="1440" preserveAspectRatio="none" viewBox="0 0 560 1440"><g mask="url(&quot;#SvgjsMask1562&quot;)" fill="none"><rect width="560" height="1440" x="0" y="0" fill="#0e2a47"></rect><path d="M46 518L-110 362" stroke-width="10" stroke="url(&quot;#SvgjsLinearGradient1563&quot;)" stroke-linecap="round" class="TopLeft"></path><path d="M86 586L-185 315" stroke-width="10" stroke="url(&quot;#SvgjsLinearGradient1563&quot;)" stroke-linecap="round" class="TopLeft"></path><path d="M101 1010L292 1201" stroke-width="6" stroke="url(&quot;#SvgjsLinearGradient1563&quot;)" stroke-linecap="round" class="TopLeft"></path><path d="M312 790L-97 381" stroke-width="10" stroke="url(&quot;#SvgjsLinearGradient1564&quot;)" stroke-linecap="round" class="BottomRight"></path><path d="M484 641L103 260" stroke-width="8" stroke="url(&quot;#SvgjsLinearGradient1564&quot;)" stroke-linecap="round" class="BottomRight"></path><path d="M525 613L735 823" stroke-width="6" stroke="url(&quot;#SvgjsLinearGradient1563&quot;)" stroke-linecap="round" class="TopLeft"></path><path d="M209 1284L416 1491" stroke-width="8" stroke="url(&quot;#SvgjsLinearGradient1563&quot;)" stroke-linecap="round" class="TopLeft"></path><path d="M539 565L232 258" stroke-width="8" stroke="url(&quot;#SvgjsLinearGradient1563&quot;)" stroke-linecap="round" class="TopLeft"></path><path d="M429 893L267 731" stroke-width="6" stroke="url(&quot;#SvgjsLinearGradient1564&quot;)" stroke-linecap="round" class="BottomRight"></path><path d="M182 15L344 177" stroke-width="6" stroke="url(&quot;#SvgjsLinearGradient1563&quot;)" stroke-linecap="round" class="TopLeft"></path><path d="M148 738L-11 579" stroke-width="6" stroke="url(&quot;#SvgjsLinearGradient1563&quot;)" stroke-linecap="round" class="TopLeft"></path><path d="M348 364L72 88" stroke-width="10" stroke="url(&quot;#SvgjsLinearGradient1563&quot;)" stroke-linecap="round" class="TopLeft"></path><path d="M511 695L259 443" stroke-width="6" stroke="url(&quot;#SvgjsLinearGradient1563&quot;)" stroke-linecap="round" class="TopLeft"></path><path d="M242 695L35 488" stroke-width="8" stroke="url(&quot;#SvgjsLinearGradient1564&quot;)" stroke-linecap="round" class="BottomRight"></path><path d="M137 64L-42 -115" stroke-width="8" stroke="url(&quot;#SvgjsLinearGradient1563&quot;)" stroke-linecap="round" class="TopLeft"></path><path d="M510 1106L299 895" stroke-width="6" stroke="url(&quot;#SvgjsLinearGradient1564&quot;)" stroke-linecap="round" class="BottomRight"></path><path d="M167 591L-240 184" stroke-width="10" stroke="url(&quot;#SvgjsLinearGradient1563&quot;)" stroke-linecap="round" class="TopLeft"></path><path d="M233 1300L-164 903" stroke-width="10" stroke="url(&quot;#SvgjsLinearGradient1564&quot;)" stroke-linecap="round" class="BottomRight"></path><path d="M312 1393L487 1568" stroke-width="10" stroke="url(&quot;#SvgjsLinearGradient1564&quot;)" stroke-linecap="round" class="BottomRight"></path><path d="M373 178L603 408" stroke-width="8" stroke="url(&quot;#SvgjsLinearGradient1563&quot;)" stroke-linecap="round" class="TopLeft"></path><path d="M399 903L-16 488" stroke-width="8" stroke="url(&quot;#SvgjsLinearGradient1564&quot;)" stroke-linecap="round" class="BottomRight"></path><path d="M117 986L-183 686" stroke-width="10" stroke="url(&quot;#SvgjsLinearGradient1564&quot;)" stroke-linecap="round" class="BottomRight"></path><path d="M262 1163L63 964" stroke-width="10" stroke="url(&quot;#SvgjsLinearGradient1564&quot;)" stroke-linecap="round" class="BottomRight"></path><path d="M24 759L-210 525" stroke-width="6" stroke="url(&quot;#SvgjsLinearGradient1564&quot;)" stroke-linecap="round" class="BottomRight"></path><path d="M74 1168L-188 906" stroke-width="10" stroke="url(&quot;#SvgjsLinearGradient1563&quot;)" stroke-linecap="round" class="TopLeft"></path><path d="M8 624L-355 261" stroke-width="10" stroke="url(&quot;#SvgjsLinearGradient1563&quot;)" stroke-linecap="round" class="TopLeft"></path><path d="M457 1131L308 982" stroke-width="10" stroke="url(&quot;#SvgjsLinearGradient1563&quot;)" stroke-linecap="round" class="TopLeft"></path><path d="M170 1243L-216 857" stroke-width="10" stroke="url(&quot;#SvgjsLinearGradient1563&quot;)" stroke-linecap="round" class="TopLeft"></path><path d="M95 1112L-308 709" stroke-width="6" stroke="url(&quot;#SvgjsLinearGradient1563&quot;)" stroke-linecap="round" class="TopLeft"></path><path d="M502 202L790 490" stroke-width="8" stroke="url(&quot;#SvgjsLinearGradient1564&quot;)" stroke-linecap="round" class="BottomRight"></path><path d="M168 987L459 1278" stroke-width="6" stroke="url(&quot;#SvgjsLinearGradient1563&quot;)" stroke-linecap="round" class="TopLeft"></path><path d="M537 812L370 645" stroke-width="10" stroke="url(&quot;#SvgjsLinearGradient1564&quot;)" stroke-linecap="round" class="BottomRight"></path><path d="M53 1074L-95 926" stroke-width="8" stroke="url(&quot;#SvgjsLinearGradient1564&quot;)" stroke-linecap="round" class="BottomRight"></path><path d="M30 1204L-155 1019" stroke-width="6" stroke="url(&quot;#SvgjsLinearGradient1563&quot;)" stroke-linecap="round" class="TopLeft"></path><path d="M63 455L261 653" stroke-width="8" stroke="url(&quot;#SvgjsLinearGradient1564&quot;)" stroke-linecap="round" class="BottomRight"></path><path d="M427 250L35 -142" stroke-width="6" stroke="url(&quot;#SvgjsLinearGradient1563&quot;)" stroke-linecap="round" class="TopLeft"></path><path d="M404 346L89 31" stroke-width="10" stroke="url(&quot;#SvgjsLinearGradient1564&quot;)" stroke-linecap="round" class="BottomRight"></path><path d="M153 248L-83 12" stroke-width="10" stroke="url(&quot;#SvgjsLinearGradient1564&quot;)" stroke-linecap="round" class="BottomRight"></path><path d="M479 294L825 640" stroke-width="6" stroke="url(&quot;#SvgjsLinearGradient1563&quot;)" stroke-linecap="round" class="TopLeft"></path></g><defs><mask id="SvgjsMask1562"><rect width="560" height="1440" fill="#ffffff"></rect></mask><linearGradient x1="100%" y1="100%" x2="0%" y2="0%" id="SvgjsLinearGradient1563"><stop stop-color="rgba(28, 83, 142, 0)" offset="0"></stop><stop stop-color="#1c538e" offset="1"></stop></linearGradient><linearGradient x1="0%" y1="0%" x2="100%" y2="100%" id="SvgjsLinearGradient1564"><stop stop-color="rgba(28, 83, 142, 0)" offset="0"></stop><stop stop-color="#1c538e" offset="1"></stop></linearGradient></defs></svg>