<svg xmlns="http://www.w3.org/2000/svg" version="1.1" xmlns:xlink="http://www.w3.org/1999/xlink" xmlns:svgjs="http://svgjs.dev/svgjs" width="560" height="1440" preserveAspectRatio="none" viewBox="0 0 560 1440"><g mask="url(&quot;#SvgjsMask1537&quot;)" fill="none"><rect width="560" height="1440" x="0" y="0" fill="url(&quot;#SvgjsRadialGradient1538&quot;)"></rect><path d="M0 0L37.02 0L0 576.96z" fill="rgba(255, 255, 255, .1)"></path><path d="M0 576.96L37.02 0L237.63000000000002 0L0 948.46z" fill="rgba(255, 255, 255, .075)"></path><path d="M0 948.46L237.63000000000002 0L350.76 0L0 1205.83z" fill="rgba(255, 255, 255, .05)"></path><path d="M0 1205.83L350.76 0L388.61 0L0 1312.46z" fill="rgba(255, 255, 255, .025)"></path><path d="M560 1440L491.1 1440L560 721.47z" fill="rgba(0, 0, 0, .1)"></path><path d="M560 721.47L491.1 1440L366.01 1440L560 680.36z" fill="rgba(0, 0, 0, .075)"></path><path d="M560 680.36L366.01 1440L301.78 1440L560 386.68z" fill="rgba(0, 0, 0, .05)"></path><path d="M560 386.68000000000006L301.78 1440L275.77 1440L560 346.13000000000005z" fill="rgba(0, 0, 0, .025)"></path></g><defs><mask id="SvgjsMask1537"><rect width="560" height="1440" fill="#ffffff"></rect></mask><radialGradient cx="50%" cy="100%" r="1466.97" gradientUnits="userSpaceOnUse" id="SvgjsRadialGradient1538"><stop stop-color="#0e2a47" offset="0"></stop><stop stop-color="rgba(0, 73, 23, 1)" offset="1"></stop></radialGradient></defs></svg>