<svg xmlns="http://www.w3.org/2000/svg" version="1.1" xmlns:xlink="http://www.w3.org/1999/xlink" xmlns:svgjs="http://svgjs.dev/svgjs" width="1080" height="1920" preserveAspectRatio="none" viewBox="0 0 1080 1920"><g mask="url(&quot;#SvgjsMask1067&quot;)" fill="none"><rect width="1080" height="1920" x="0" y="0" fill="#0e2a47"></rect><path d="M 740,-304.48886430714595 C 691.8,-112.49 491.4,271.51 499,655.511135692854 C 506.6,1039.51 771.6,1231.51 778,1615.5111356928542 C 784.4,1999.51 542.2,2514.61 531,2575.511135692854 C 519.8,2636.41 683.8,2051.1 722,1920" stroke="rgba(17, 241, 0, 0.58)" stroke-width="2"></path><path d="M 537,-131.6458892573039 C 598.8,60.35 869.8,444.35 846,828.3541107426961 C 822.2,1212.35 419,1404.35 418,1788.354110742696 C 417,2172.35 843.8,2722.02 841,2748.3541107426963 C 838.2,2774.68 491.4,2085.67 404,1920" stroke="rgba(17, 241, 0, 0.58)" stroke-width="2"></path><path d="M 583,-165.68033399928777 C 553.8,26.32 403.4,410.32 437,794.3196660007122 C 470.6,1178.32 773.2,1370.32 751,1754.3196660007122 C 728.8,2138.32 367.8,2681.18 326,2714.3196660007125 C 284.2,2747.46 498.8,2078.86 542,1920" stroke="rgba(17, 241, 0, 0.58)" stroke-width="2"></path><path d="M 639,-222.29377899656208 C 606.6,-30.29 440.4,353.71 477,737.7062210034379 C 513.6,1121.71 857,1313.71 822,1697.7062210034378 C 787,2081.71 334.8,2613.25 302,2657.706221003438 C 269.2,2702.16 586.8,2067.54 658,1920" stroke="rgba(17, 241, 0, 0.58)" stroke-width="2"></path><path d="M 381,-1337.1874722250313 C 442,-1145.19 656.2,-761.19 686,-377.18747222503146 C 715.8,6.81 514.8,198.81 530,582.8125277749685 C 545.2,966.81 760.2,1275.38 762,1542.8125277749687 C 763.8,1810.25 583.6,1844.56 539,1920" stroke="rgba(17, 241, 0, 0.58)" stroke-width="2"></path><path d="M 681,-679.7944700274616 C 596.8,-487.79 234,-103.79 260,280.20552997253844 C 286,664.21 810.8,856.21 811,1240.2055299725384 C 811.2,1624.21 293.4,2064.25 261,2200.2055299725384 C 228.6,2336.16 571.4,1976.04 649,1920" stroke="rgba(17, 241, 0, 0.58)" stroke-width="2"></path></g><defs><mask id="SvgjsMask1067"><rect width="1080" height="1920" fill="#ffffff"></rect></mask></defs></svg>